<svg width="160" height="40" viewBox="0 0 160 40" fill="none" xmlns="http://www.w3.org/2000/svg">
<path d="M31.24 28.572V33.252C30.448 33.516 29.68 33.648 28.936 33.648C27.28 33.648 25.9 33.132 24.796 32.1C23.716 31.068 23.176 29.52 23.176 27.456V12.66H29.656V26.412C29.656 27.708 30.184 28.428 31.24 28.572ZM32.68 30.588V12.66H39.16V33.36H33.652L32.68 30.588Z" fill="#60646C"/>
<path d="M48.504 33.36H42.024V7.04399L48.504 6.17999V33.36Z" fill="#60646C"/>
<path d="M57.8555 33.36H51.3755V7.04399L57.8555 6.17999V33.36Z" fill="#60646C"/>
<path d="M87.1393 17.52V12.66H89.8393V8.12399H96.3193V12.66H100.243V17.52H87.1393ZM89.8393 18.996H96.3193V26.484C96.3193 27.156 96.4873 27.648 96.8233 27.96C97.1833 28.272 97.7473 28.428 98.5153 28.428C98.8993 28.428 99.2353 28.416 99.5233 28.392C99.8113 28.344 100.051 28.296 100.243 28.248V33.036C99.6673 33.228 99.0553 33.384 98.4073 33.504C97.7833 33.648 97.1473 33.72 96.4993 33.72C94.2913 33.72 92.6233 33.252 91.4953 32.316C90.3913 31.356 89.8393 29.652 89.8393 27.204V18.996Z" fill="#60646C"/>
<path d="M111.459 33.684V28.392C112.323 27.816 112.755 26.04 112.755 23.064C112.755 20.016 112.323 18.228 111.459 17.7V12.408C114.339 12.528 116.391 13.428 117.615 15.108C118.839 16.764 119.451 19.404 119.451 23.028C119.451 26.652 118.839 29.304 117.615 30.984C116.391 32.64 114.339 33.54 111.459 33.684ZM109.659 28.428V33.684C106.779 33.54 104.727 32.64 103.503 30.984C102.279 29.304 101.667 26.652 101.667 23.028C101.667 19.404 102.279 16.764 103.503 15.108C104.727 13.452 106.779 12.552 109.659 12.408V17.664C109.203 17.952 108.867 18.528 108.651 19.392C108.459 20.256 108.363 21.48 108.363 23.064C108.363 26.112 108.795 27.9 109.659 28.428Z" fill="#60646C"/>
<path d="M127.63 22.02H120.934C121.03 20.172 121.354 18.624 121.906 17.376C122.482 16.128 123.226 15.144 124.138 14.424C125.074 13.68 126.106 13.152 127.234 12.84C128.386 12.528 129.574 12.372 130.798 12.372C131.638 12.372 132.406 12.432 133.102 12.552C133.798 12.672 134.518 12.852 135.262 13.092V21.192H131.554L130.834 17.448C129.85 17.448 129.082 17.784 128.53 18.456C128.002 19.128 127.702 20.316 127.63 22.02ZM120.898 23.856H127.63C127.726 25.584 128.11 26.796 128.782 27.492C129.478 28.188 130.39 28.536 131.518 28.536C132.67 28.512 133.966 28.32 135.406 27.96V33.072C134.662 33.288 133.786 33.444 132.778 33.54C131.77 33.66 130.846 33.72 130.006 33.72C128.35 33.72 126.85 33.444 125.506 32.892C124.162 32.316 123.082 31.308 122.266 29.868C121.45 28.428 120.994 26.424 120.898 23.856Z" fill="#60646C"/>
<path d="M144.129 15.36L137.649 28.644V7.04399L144.129 6.17999V15.36ZM144.165 33.36H137.289L147.405 12.66H154.317L144.165 33.36ZM146.937 31.812L150.717 24L154.317 33.36H147.441L146.937 31.812Z" fill="#60646C"/>
<path fill-rule="evenodd" clip-rule="evenodd" d="M75.3431 23.028L78.2951 16.728C77.7671 16.488 77.3471 16.248 77.0351 16.008C76.7231 15.768 76.5671 15.456 76.5671 15.072C76.5671 14.376 76.7831 13.908 77.2151 13.668C77.6711 13.404 78.3311 13.272 79.1951 13.272C80.0111 13.272 80.8511 13.308 81.7151 13.38C82.5791 13.428 83.2991 13.488 83.8751 13.56L84.7751 13.668L85.4951 7.87199L84.5231 7.69199C83.8751 7.54799 83.0111 7.41599 81.9311 7.29599C80.8511 7.17599 79.6511 7.11599 78.3311 7.11599C75.1391 7.13999 72.8471 7.81199 71.4551 9.13199C70.0871 10.428 69.4031 12.396 69.4031 15.036C69.4031 17.1 69.7871 18.672 70.5551 19.752C71.3231 20.832 72.4151 21.696 73.8311 22.344L75.3431 23.028Z" fill="#60646C"/>
<path fill-rule="evenodd" clip-rule="evenodd" d="M13.8652 15H6.84523V33.36H13.8652V23.856H18.7612L19.8412 18.096H13.8652V15Z" fill="#60646C"/>
<path d="M7.16923 13.2L4.86523 7.43999H21.5692L20.4892 13.2H7.16923Z" fill="#5B5BD6"/>
<path d="M76.9991 23.82L79.9871 17.448L81.5351 18.132C83.1671 18.852 84.3551 19.752 85.0991 20.832C85.8431 21.888 86.2151 23.4 86.2151 25.368C86.2151 28.032 85.5191 30.084 84.1271 31.524C82.7351 32.964 80.4431 33.696 77.2511 33.72C75.6671 33.72 74.1911 33.612 72.8231 33.396C71.4551 33.204 70.2431 32.976 69.1871 32.712L69.9071 26.916L70.7711 27.06C71.3711 27.156 72.1631 27.252 73.1471 27.348C74.1311 27.444 75.2111 27.492 76.3871 27.492C77.2991 27.492 77.9831 27.36 78.4391 27.096C78.8951 26.832 79.1231 26.4 79.1231 25.8C79.1231 25.392 79.0151 25.068 78.7991 24.828C78.5831 24.588 78.1991 24.348 77.6471 24.108L76.9991 23.82Z" fill="#5B5BD6"/>
</svg>
